HIERARCHY
ROOT Hips
{
	OFFSET 0.000000 0.000000 0.000000
	CHANNELS 6 Xposition Yposition Zposition Zrotation Yrotation Xrotation 
	JOINT LeftUpLeg_virtual
	{
		OFFSET 0.000000 0.000000 0.000000
		CHANNELS 3 Zrotation Yrotation Xrotation
		JOINT LeftUpLeg
		{
			OFFSET 8.479694 -4.795517 -0.379053
			CHANNELS 3 Zrotation Yrotation Xrotation
			JOINT LeftLeg
			{
				OFFSET 0.485052 -32.551468 0.112863
				CHANNELS 3 Zrotation Yrotation Xrotation
				JOINT LeftFoot
				{
					OFFSET 0.438033 -32.635670 -3.012641
					CHANNELS 3 Zrotation Yrotation Xrotation
					JOINT LeftToeBase
					{
						OFFSET 0.970169 -13.225353 11.864223
						CHANNELS 3 Zrotation Yrotation Xrotation
						End Site
						{
							OFFSET 0.000000 0.000000 0.000000
						}
					}
				}
			}
		}
	}
	JOINT RightUpLeg_virtual
	{
		OFFSET 0.000000 0.000000 0.000000
		CHANNELS 3 Zrotation Yrotation Xrotation
		JOINT RightUpLeg
		{
			OFFSET -8.479694 -4.795517 -0.379053
			CHANNELS 3 Zrotation Yrotation Xrotation
			JOINT RightLeg
			{
				OFFSET -0.484100 -32.551483 0.112903
				CHANNELS 3 Zrotation Yrotation Xrotation
				JOINT RightFoot
				{
					OFFSET -0.438985 -32.635651 -3.012681
					CHANNELS 3 Zrotation Yrotation Xrotation
					JOINT RightToeBase
					{
						OFFSET -0.970169 -13.225354 11.864223
						CHANNELS 3 Zrotation Yrotation Xrotation
						End Site
						{
							OFFSET 0.000000 0.000000 0.000000
						}
					}
				}
			}
		}
	}
	JOINT Spine_virtual
	{
		OFFSET 0.000000 0.000000 0.000000
		CHANNELS 3 Zrotation Yrotation Xrotation
		JOINT Spine
		{
			OFFSET 0.000000 7.722015 1.166203
			CHANNELS 3 Zrotation Yrotation Xrotation
			JOINT Spine1
			{
				OFFSET 0.000000 12.024086 0.248766
				CHANNELS 3 Zrotation Yrotation Xrotation
				JOINT Spine2
				{
					OFFSET -0.000000 11.503036 -0.491240
					CHANNELS 3 Zrotation Yrotation Xrotation
					JOINT Neck_virtual
					{
						OFFSET 0.000000 0.000000 0.000000
						CHANNELS 3 Zrotation Yrotation Xrotation
						JOINT Neck
						{
							OFFSET 0.000000 18.430687 -3.123054
							CHANNELS 3 Zrotation Yrotation Xrotation
							JOINT Head
							{
								OFFSET -0.000000 9.051071 1.034021
								CHANNELS 3 Zrotation Yrotation Xrotation
								End Site
								{
									OFFSET 0.000000 0.000000 0.000000
								}
							}
						}
					}
					JOINT LeftShoulder_virtual
					{
						OFFSET 0.000000 0.000000 0.000000
						CHANNELS 3 Zrotation Yrotation Xrotation
						JOINT LeftShoulder
						{
							OFFSET 6.197824 13.665230 -4.064723
							CHANNELS 3 Zrotation Yrotation Xrotation
							JOINT LeftArm
							{
								OFFSET 7.778132 -0.187073 -1.709282
								CHANNELS 3 Zrotation Yrotation Xrotation
								JOINT LeftForeArm
								{
									OFFSET 21.954697 0.000000 -2.041093
									CHANNELS 3 Zrotation Yrotation Xrotation
									JOINT LeftHand
									{
										OFFSET 22.992908 0.000000 -0.870901
										CHANNELS 3 Zrotation Yrotation Xrotation
										End Site
										{
											OFFSET 0.000000 0.000000 0.000000
										}
									}
								}
							}
						}
					}
					JOINT RightShoulder_virtual
					{
						OFFSET 0.000000 0.000000 0.000000
						CHANNELS 3 Zrotation Yrotation Xrotation
						JOINT RightShoulder
						{
							OFFSET -6.197824 13.665230 -4.064723
							CHANNELS 3 Zrotation Yrotation Xrotation
							JOINT RightArm
							{
								OFFSET -7.778132 -0.187073 -1.709282
								CHANNELS 3 Zrotation Yrotation Xrotation
								JOINT RightForeArm
								{
									OFFSET -21.954697 0.000000 -2.041093
									CHANNELS 3 Zrotation Yrotation Xrotation
									JOINT RightHand
									{
										OFFSET -22.992908 0.000000 -0.870901
										CHANNELS 3 Zrotation Yrotation Xrotation
										End Site
										{
											OFFSET 0.000000 0.000000 0.000000
										}
									}
								}
							}
						}
					}
				}
			}
		}
	}
}
MOTION
Frames: 4
Frame Time: 0.033333
-11.185168 81.473007 -40.715420 179.923029 -0.153842 -179.995702 -2.933526 -0.596923 11.615987 2.920720 -3.395293 -23.181850 8.354258 3.954342 31.244376 -0.120619 -7.314462 -14.888639 0.000000 0.000000 0.000000 -0.481701 -1.727098 11.801662 -2.026165 0.876046 -20.268699 -2.116886 2.479542 27.919848 9.820976 3.496266 -14.692881 0.000000 0.000000 0.000000 3.196040 1.685465 -0.955961 -5.795206 1.438019 -1.175177 -0.271005 -2.891573 5.500270 0.038670 0.029857 -0.073051 -0.244813 -2.078821 6.276430 -0.359160 1.107517 -1.220924 0.000000 0.000000 0.000000 1.489487 -1.266724 2.759616 -0.871944 7.139727 -6.736407 9.619874 -10.436573 -55.674132 -1.873357 -33.624509 -3.322781 0.000000 0.000000 0.000000 -2.776773 -0.001447 2.109024 23.886080 -8.967582 -13.632084 -8.450071 1.612088 -65.283918 -0.637458 22.366228 10.101098 0.000000 0.000000 0.000000 
-11.175985 81.461670 -40.714828 179.837829 0.131000 179.973654 -2.818746 -0.470085 11.706864 3.206937 -4.024368 -23.264049 8.497033 3.722082 31.113462 0.143836 -6.958235 -15.399333 0.000000 0.000000 0.000000 -0.695569 -1.874919 11.700968 -1.825600 0.282579 -20.531354 -2.024393 2.051122 28.320273 9.831291 3.470434 -15.610141 0.000000 0.000000 0.000000 3.077643 1.776506 -1.033411 -5.755111 1.469460 -1.206482 -0.279427 -2.831084 5.462630 0.054100 0.068827 -0.019487 -0.315220 -2.100830 6.252637 -0.379446 1.072632 -1.195791 0.000000 0.000000 0.000000 1.500592 -1.311048 2.663268 -0.983715 7.314879 -6.613069 9.447161 -10.357508 -55.552521 -1.777240 -33.604333 -3.388851 0.000000 0.000000 0.000000 -2.787614 0.014700 2.075910 24.064621 -8.903699 -13.570980 -8.511505 1.581675 -65.265975 -0.641092 22.284189 10.011813 0.000000 0.000000 0.000000 
-11.176342 81.433434 -40.726959 179.854549 0.289995 179.963873 -2.884728 -0.307717 11.715304 3.304901 -4.079369 -23.313053 8.437364 3.750391 31.273295 0.089320 -6.848235 -15.523526 0.000000 0.000000 0.000000 -0.673725 -1.755997 11.683897 -1.862583 0.036295 -20.625447 -1.957103 2.053847 28.588418 10.125294 3.508549 -15.657592 0.000000 0.000000 0.000000 2.948375 1.899488 -1.090736 -5.632647 1.452207 -1.332550 -0.293141 -2.741485 5.457220 0.031856 0.114831 -0.022025 -0.214045 -1.993102 6.218877 -0.143221 0.799328 -1.173521 0.000000 0.000000 0.000000 1.426295 -1.175347 2.709711 -1.033034 7.208493 -6.634676 9.211868 -10.348352 -55.544078 -1.632250 -33.359597 -3.450511 0.000000 0.000000 0.000000 -2.812424 0.064587 2.062068 24.376163 -8.937509 -13.457911 -8.533945 1.457309 -65.198534 -0.590246 22.288910 9.875560 0.000000 0.000000 0.000000 
-11.178384 81.410927 -40.750122 179.835671 0.276172 -179.962999 -2.990942 -0.354524 11.689238 3.442539 -4.168304 -23.411454 8.373606 3.733353 31.525162 0.004100 -6.706155 -15.686091 0.000000 0.000000 0.000000 -0.661297 -1.819420 11.600384 -1.881740 -0.356632 -20.736584 -1.859613 2.038169 28.823429 10.178671 3.769365 -15.671584 0.000000 0.000000 0.000000 2.752015 1.940573 -1.186753 -5.485669 1.334411 -1.501126 -0.286684 -2.748475 5.453471 0.051035 0.046545 -0.048265 -0.229780 -1.868375 6.247273 -0.056890 0.669650 -1.173713 0.000000 0.000000 0.000000 1.457647 -1.054203 2.751847 -1.248987 7.226045 -6.670207 8.925311 -10.410951 -55.478358 -1.581835 -33.059420 -3.422193 0.000000 0.000000 0.000000 -2.792332 0.183992 2.182063 24.462480 -8.893658 -13.627474 -8.311394 1.320544 -65.288515 -0.363237 22.454061 9.723890 0.000000 0.000000 0.000000 
